<svg width="233" height="234" viewBox="0 0 233 234" fill="none" xmlns="http://www.w3.org/2000/svg">
<g clip-path="url(#clip0_308_61)">
<path d="M10.5111 45.922V55H8.40313V47.724H3.93213V55H1.80713V45.922H10.5111ZM13.3784 45.922H15.5034V49.611H20.0764V45.922H22.2014V55H20.0764V51.413H15.5034V55H13.3784V45.922Z" fill="#4A535C"/>
<path d="M44.3783 50.274C45.5003 50.614 46.0613 51.3393 46.0613 52.45C46.0613 53.266 45.7553 53.895 45.1433 54.337C44.5313 54.779 43.6246 55 42.4233 55H37.7993V45.922H42.2363C43.347 45.922 44.214 46.126 44.8373 46.534C45.4606 46.942 45.7723 47.52 45.7723 48.268C45.7723 48.7327 45.6476 49.135 45.3983 49.475C45.1603 49.815 44.8203 50.0813 44.3783 50.274ZM39.8223 49.713H42.0493C43.1486 49.713 43.6983 49.3333 43.6983 48.574C43.6983 47.8373 43.1486 47.469 42.0493 47.469H39.8223V49.713ZM42.2533 53.453C43.4206 53.453 44.0043 53.0733 44.0043 52.314C44.0043 51.9173 43.8683 51.6227 43.5963 51.43C43.3243 51.226 42.8993 51.124 42.3213 51.124H39.8223V53.453H42.2533ZM55.5157 47.724H52.3367V55H50.2117V47.724H47.0157V45.922H55.5157V47.724Z" fill="#4A535C"/>
<path d="M76.7431 55.1189C75.8024 55.1189 74.9581 54.9206 74.2101 54.5239C73.4621 54.1272 72.8784 53.5776 72.4591 52.8749C72.0397 52.1609 71.8301 51.3562 71.8301 50.4609C71.8301 49.5656 72.0397 48.7666 72.4591 48.0639C72.8784 47.3612 73.4564 46.8116 74.1931 46.4149C74.9411 46.0182 75.7911 45.8199 76.7431 45.8199C77.6384 45.8199 78.4204 46.0012 79.0891 46.3639C79.7691 46.7266 80.2791 47.2479 80.6191 47.9279L78.9871 48.8799C78.7264 48.4606 78.3977 48.1489 78.0011 47.9449C77.6157 47.7296 77.1907 47.6219 76.7261 47.6219C75.9327 47.6219 75.2754 47.8826 74.7541 48.4039C74.2327 48.9139 73.9721 49.5996 73.9721 50.4609C73.9721 51.3222 74.2271 52.0136 74.7371 52.5349C75.2584 53.0449 75.9214 53.2999 76.7261 53.2999C77.1907 53.2999 77.6157 53.1979 78.0011 52.9939C78.3977 52.7786 78.7264 52.4612 78.9871 52.0419L80.6191 52.9939C80.2677 53.6739 79.7521 54.2009 79.0721 54.5749C78.4034 54.9376 77.6271 55.1189 76.7431 55.1189ZM87.522 45.8199C88.406 45.8199 89.1937 46.0126 89.885 46.3979C90.5877 46.7832 91.1373 47.3272 91.534 48.0299C91.9307 48.7326 92.129 49.5429 92.129 50.4609C92.129 51.3789 91.9307 52.1949 91.534 52.9089C91.1373 53.6116 90.5877 54.1556 89.885 54.5409C89.1937 54.9262 88.406 55.1189 87.522 55.1189C86.298 55.1189 85.329 54.7109 84.615 53.8949V58.2979H82.49V45.9219H84.513V47.1119C84.8643 46.6812 85.295 46.3582 85.805 46.1429C86.3263 45.9276 86.8987 45.8199 87.522 45.8199ZM87.284 53.2999C88.066 53.2999 88.7063 53.0392 89.205 52.5179C89.715 51.9966 89.97 51.3109 89.97 50.4609C89.97 49.6109 89.715 48.9252 89.205 48.4039C88.7063 47.8826 88.066 47.6219 87.284 47.6219C86.774 47.6219 86.315 47.7409 85.907 47.9789C85.499 48.2056 85.176 48.5342 84.938 48.9649C84.7 49.3956 84.581 49.8942 84.581 50.4609C84.581 51.0276 84.7 51.5262 84.938 51.9569C85.176 52.3876 85.499 52.7219 85.907 52.9599C86.315 53.1866 86.774 53.2999 87.284 53.2999Z" fill="#4A535C"/>
<path d="M185.029 70V81.9H183.805V71.088H181V70H185.029Z" fill="#4A535C"/>
<path d="M115.483 45.922V55H113.358V51.481C112.486 51.9003 111.573 52.11 110.621 52.11C109.454 52.11 108.559 51.8437 107.935 51.311C107.312 50.767 107 49.9397 107 48.829V45.922H109.125V48.693C109.125 49.271 109.295 49.7017 109.635 49.985C109.975 50.2683 110.457 50.41 111.08 50.41C111.874 50.41 112.633 50.24 113.358 49.9V45.922H115.483ZM125.532 47.724H122.353V55H120.228V47.724H117.032V45.922H125.532V47.724Z" fill="#4A535C"/>
<path d="M223.704 80.914V82.002H215.357V81.135L220.304 76.29C220.927 75.678 221.347 75.151 221.562 74.709C221.789 74.2557 221.902 73.8023 221.902 73.349C221.902 72.6463 221.658 72.1023 221.171 71.717C220.695 71.3203 220.009 71.122 219.114 71.122C217.72 71.122 216.638 71.564 215.867 72.448L215 71.7C215.465 71.156 216.054 70.7367 216.768 70.442C217.493 70.1473 218.309 70 219.216 70C220.429 70 221.386 70.289 222.089 70.867C222.803 71.4337 223.16 72.2157 223.16 73.213C223.16 73.825 223.024 74.4143 222.752 74.981C222.48 75.5477 221.964 76.1993 221.205 76.936L217.159 80.914H223.704Z" fill="#4A535C"/>
<path d="M150.48 45.922V55H148.372V47.724H143.901V55H141.776V45.922H150.48ZM160.538 47.724H157.359V55H155.234V47.724H152.038V45.922H160.538V47.724Z" fill="#4A535C"/>
<path d="M178.992 55.119C178.051 55.119 177.207 54.9207 176.459 54.524C175.711 54.1273 175.127 53.5777 174.708 52.875C174.289 52.161 174.079 51.3563 174.079 50.461C174.079 49.5657 174.289 48.7667 174.708 48.064C175.127 47.3613 175.705 46.8117 176.442 46.415C177.19 46.0183 178.04 45.82 178.992 45.82C179.887 45.82 180.669 46.0013 181.338 46.364C182.018 46.7267 182.528 47.248 182.868 47.928L181.236 48.88C180.975 48.4607 180.647 48.149 180.25 47.945C179.865 47.7297 179.44 47.622 178.975 47.622C178.182 47.622 177.524 47.8827 177.003 48.404C176.482 48.914 176.221 49.5997 176.221 50.461C176.221 51.3223 176.476 52.0137 176.986 52.535C177.507 53.045 178.17 53.3 178.975 53.3C179.44 53.3 179.865 53.198 180.25 52.994C180.647 52.7787 180.975 52.4613 181.236 52.042L182.868 52.994C182.517 53.674 182.001 54.201 181.321 54.575C180.652 54.9377 179.876 55.119 178.992 55.119ZM189.569 46.364C190.43 46.364 191.19 46.551 191.847 46.925C192.504 47.2877 193.014 47.7977 193.377 48.455C193.751 49.1123 193.938 49.866 193.938 50.716C193.938 51.5887 193.734 52.365 193.326 53.045C192.918 53.7137 192.346 54.235 191.609 54.609C190.872 54.983 190.034 55.17 189.093 55.17C187.518 55.17 186.299 54.6487 185.438 53.606C184.577 52.5633 184.146 51.0617 184.146 49.101C184.146 47.2763 184.537 45.8313 185.319 44.766C186.101 43.7007 187.297 42.998 188.906 42.658L193.122 41.757L193.428 43.661L189.603 44.443C188.504 44.6697 187.682 45.055 187.138 45.599C186.594 46.143 186.277 46.908 186.186 47.894C186.594 47.4067 187.087 47.0327 187.665 46.772C188.243 46.5 188.878 46.364 189.569 46.364ZM189.144 53.453C189.926 53.453 190.555 53.2037 191.031 52.705C191.518 52.195 191.762 51.549 191.762 50.767C191.762 49.985 191.518 49.356 191.031 48.88C190.555 48.404 189.926 48.166 189.144 48.166C188.351 48.166 187.71 48.404 187.223 48.88C186.736 49.356 186.492 49.985 186.492 50.767C186.492 51.5603 186.736 52.2063 187.223 52.705C187.722 53.2037 188.362 53.453 189.144 53.453Z" fill="#4A535C"/>
<path d="M217.305 50.2739C218.427 50.6139 218.988 51.3392 218.988 52.4499C218.988 53.2659 218.682 53.8949 218.07 54.3369C217.458 54.7789 216.552 54.9999 215.35 54.9999H210.726V45.9219H215.163C216.274 45.9219 217.141 46.1259 217.764 46.5339C218.388 46.9419 218.699 47.5199 218.699 48.2679C218.699 48.7326 218.575 49.1349 218.325 49.4749C218.087 49.8149 217.747 50.0812 217.305 50.2739ZM212.749 49.7129H214.976C216.076 49.7129 216.625 49.3332 216.625 48.5739C216.625 47.8372 216.076 47.4689 214.976 47.4689H212.749V49.7129ZM215.18 53.4529C216.348 53.4529 216.931 53.0732 216.931 52.3139C216.931 51.9172 216.795 51.6226 216.523 51.4299C216.251 51.2259 215.826 51.1239 215.248 51.1239H212.749V53.4529H215.18ZM225.383 55.1189C224.442 55.1189 223.598 54.9206 222.85 54.5239C222.102 54.1272 221.518 53.5776 221.099 52.8749C220.679 52.1609 220.47 51.3562 220.47 50.4609C220.47 49.5656 220.679 48.7666 221.099 48.0639C221.518 47.3612 222.096 46.8116 222.833 46.4149C223.581 46.0182 224.431 45.8199 225.383 45.8199C226.278 45.8199 227.06 46.0012 227.729 46.3639C228.409 46.7266 228.919 47.2479 229.259 47.9279L227.627 48.8799C227.366 48.4606 227.037 48.1489 226.641 47.9449C226.255 47.7296 225.83 47.6219 225.366 47.6219C224.572 47.6219 223.915 47.8826 223.394 48.4039C222.872 48.9139 222.612 49.5996 222.612 50.4609C222.612 51.3222 222.867 52.0136 223.377 52.5349C223.898 53.0449 224.561 53.2999 225.366 53.2999C225.83 53.2999 226.255 53.1979 226.641 52.9939C227.037 52.7786 227.366 52.4612 227.627 52.0419L229.259 52.9939C228.907 53.6739 228.392 54.2009 227.712 54.5749C227.043 54.9376 226.267 55.1189 225.383 55.1189Z" fill="#4A535C"/>
<path d="M42.6095 30C42.3108 30 42.0495 29.8973 41.8255 29.692C41.6015 29.4867 41.4895 29.2253 41.4895 28.908V9.224C41.4895 8.90667 41.6015 8.64533 41.8255 8.44C42.0495 8.23467 42.3108 8.132 42.6095 8.132C42.9268 8.132 43.1788 8.23467 43.3655 8.44C43.5708 8.64533 43.6735 8.90667 43.6735 9.224V26.416L57.6455 8.524C57.8508 8.26267 58.1308 8.132 58.4855 8.132C58.8028 8.132 59.0641 8.23467 59.2695 8.44C59.4748 8.64533 59.5775 8.90667 59.5775 9.224V28.908C59.5775 29.2253 59.4748 29.4867 59.2695 29.692C59.0641 29.8973 58.8028 30 58.4855 30C58.1681 30 57.9068 29.8973 57.7015 29.692C57.4961 29.4867 57.3935 29.2253 57.3935 28.908V11.744L43.4215 29.636C43.3281 29.748 43.2068 29.8413 43.0575 29.916C42.9081 29.972 42.7588 30 42.6095 30ZM65.9811 30C65.6451 30 65.3745 29.9067 65.1691 29.72C64.9825 29.5147 64.8891 29.2533 64.8891 28.936V15.776C64.8891 15.44 64.9825 15.1787 65.1691 14.992C65.3745 14.7867 65.6451 14.684 65.9811 14.684C66.2985 14.684 66.5505 14.7867 66.7371 14.992C66.9425 15.1787 67.0451 15.44 67.0451 15.776V28.936C67.0451 29.2533 66.9425 29.5147 66.7371 29.72C66.5505 29.9067 66.2985 30 65.9811 30ZM66.6811 23.28C66.4011 23.28 66.1678 23.196 65.9811 23.028C65.7945 22.8413 65.7011 22.5987 65.7011 22.3C65.7011 22.0013 65.7945 21.768 65.9811 21.6C66.1678 21.4133 66.4011 21.32 66.6811 21.32H70.7411C71.0398 21.32 71.2731 21.4133 71.4411 21.6C71.6278 21.768 71.7211 22.0013 71.7211 22.3C71.7211 22.5987 71.6278 22.8413 71.4411 23.028C71.2731 23.196 71.0398 23.28 70.7411 23.28H66.6811ZM77.9371 30.14C76.4251 30.14 75.0811 29.804 73.9051 29.132C72.7291 28.46 71.8051 27.536 71.1331 26.36C70.4611 25.184 70.1251 23.8493 70.1251 22.356C70.1251 20.844 70.4611 19.5 71.1331 18.324C71.8051 17.148 72.7291 16.224 73.9051 15.552C75.0811 14.88 76.4251 14.544 77.9371 14.544C79.4118 14.544 80.7278 14.88 81.8851 15.552C83.0611 16.224 83.9851 17.148 84.6571 18.324C85.3478 19.5 85.6931 20.844 85.6931 22.356C85.6931 23.8493 85.3571 25.184 84.6851 26.36C84.0131 27.536 83.0891 28.46 81.9131 29.132C80.7371 29.804 79.4118 30.14 77.9371 30.14ZM77.9371 28.18C79.0198 28.18 79.9811 27.928 80.8211 27.424C81.6798 26.92 82.3518 26.2293 82.8371 25.352C83.3225 24.4747 83.5651 23.476 83.5651 22.356C83.5651 21.236 83.3225 20.2373 82.8371 19.36C82.3518 18.464 81.6798 17.764 80.8211 17.26C79.9811 16.756 79.0198 16.504 77.9371 16.504C76.8358 16.504 75.8558 16.756 74.9971 17.26C74.1571 17.764 73.4851 18.464 72.9811 19.36C72.4958 20.2373 72.2531 21.236 72.2531 22.356C72.2531 23.476 72.4958 24.4747 72.9811 25.352C73.4851 26.2293 74.1571 26.92 74.9971 27.424C75.8558 27.928 76.8358 28.18 77.9371 28.18ZM95.6207 14.684C95.8447 14.684 96.05 14.74 96.2367 14.852C96.4233 14.964 96.5727 15.1507 96.6847 15.412L102.761 28.628C102.891 28.8893 102.901 29.1413 102.789 29.384C102.695 29.608 102.518 29.7853 102.257 29.916C101.958 30.0467 101.687 30.0747 101.445 30C101.202 29.9067 101.006 29.72 100.857 29.44L95.0607 16.532H96.3207L90.4127 29.412C90.282 29.692 90.0767 29.8787 89.7967 29.972C89.5353 30.0467 89.2647 30.0187 88.9847 29.888C88.7233 29.7573 88.5367 29.58 88.4247 29.356C88.3313 29.1133 88.3407 28.8613 88.4527 28.6L94.6127 15.412C94.8367 14.9267 95.1727 14.684 95.6207 14.684ZM112.866 30.28C111.578 30.28 110.448 30.0373 109.478 29.552C108.507 29.0667 107.742 28.404 107.182 27.564C106.64 26.7053 106.37 25.7067 106.37 24.568V15.748C106.388 15.4307 106.5 15.1787 106.706 14.992C106.911 14.7867 107.163 14.684 107.462 14.684C107.76 14.684 108.012 14.7867 108.218 14.992C108.423 15.1973 108.526 15.4587 108.526 15.776V19.752H113.09C114.303 19.752 115.367 19.9667 116.282 20.396C117.215 20.8253 117.934 21.432 118.438 22.216C118.96 23 119.222 23.9053 119.222 24.932C119.222 25.9587 118.951 26.8827 118.41 27.704C117.887 28.5067 117.15 29.1413 116.198 29.608C115.246 30.056 114.135 30.28 112.866 30.28ZM112.866 28.292C114.079 28.292 115.087 28.012 115.89 27.452C116.692 26.892 117.094 26.052 117.094 24.932C117.094 23.8867 116.739 23.0747 116.03 22.496C115.32 21.9173 114.34 21.628 113.09 21.628H108.526V24.568C108.526 25.2773 108.703 25.9213 109.058 26.5C109.431 27.06 109.935 27.4987 110.57 27.816C111.223 28.1333 111.988 28.292 112.866 28.292Z" fill="#4A535C"/>
<path d="M171.561 30C171.561 29.0107 171.711 28.1333 172.009 27.368C172.327 26.6027 172.747 25.9027 173.269 25.268C173.792 24.6147 174.38 23.9893 175.033 23.392C175.705 22.776 176.387 22.132 177.077 21.46C178.291 20.3027 179.168 19.2293 179.709 18.24C180.251 17.2507 180.521 16.2987 180.521 15.384C180.521 14.6747 180.419 13.9933 180.213 13.34C180.027 12.668 179.681 12.1173 179.177 11.688C178.673 11.2587 177.973 11.044 177.077 11.044C176.312 11.044 175.631 11.24 175.033 11.632C174.436 12.0053 174.035 12.472 173.829 13.032C174.016 13.2187 174.147 13.424 174.221 13.648C174.296 13.8533 174.333 14.0587 174.333 14.264C174.333 14.432 174.287 14.6187 174.193 14.824C174.119 15.0293 173.979 15.2067 173.773 15.356C173.568 15.5053 173.297 15.58 172.961 15.58C172.551 15.5613 172.233 15.4027 172.009 15.104C171.785 14.8053 171.673 14.4507 171.673 14.04C171.673 13.648 171.795 13.2187 172.037 12.752C172.28 12.2667 172.644 11.8187 173.129 11.408C173.633 10.9787 174.249 10.6333 174.977 10.372C175.705 10.092 176.555 9.952 177.525 9.952C178.272 9.952 178.991 10.0453 179.681 10.232C180.391 10.4 181.025 10.68 181.585 11.072C182.145 11.464 182.584 11.9867 182.901 12.64C183.237 13.2747 183.405 14.068 183.405 15.02C183.405 15.4867 183.303 15.9907 183.097 16.532C182.911 17.0733 182.593 17.6613 182.145 18.296C181.716 18.912 181.156 19.5747 180.465 20.284C179.775 20.9747 178.925 21.7307 177.917 22.552C176.648 23.5973 175.603 24.5867 174.781 25.52C173.979 26.4347 173.512 27.2187 173.381 27.872L178.337 28.012C179.252 28.0307 180.055 28.0307 180.745 28.012C181.455 27.9933 182.005 27.8533 182.397 27.592C182.808 27.312 183.013 26.808 183.013 26.08H183.853L183.685 30H171.561ZM194.021 30.448C192.602 30.448 191.426 30.1493 190.493 29.552C189.559 28.936 188.831 28.1333 188.309 27.144C187.786 26.136 187.413 25.0347 187.189 23.84C186.983 22.6453 186.881 21.46 186.881 20.284C186.881 19.108 187.011 17.9133 187.273 16.7C187.553 15.4867 187.982 14.376 188.561 13.368C189.139 12.3413 189.886 11.52 190.801 10.904C191.715 10.2693 192.826 9.952 194.133 9.952C195.495 9.952 196.625 10.26 197.521 10.876C198.435 11.492 199.154 12.304 199.677 13.312C200.218 14.3013 200.601 15.3933 200.825 16.588C201.049 17.7827 201.161 18.968 201.161 20.144C201.161 21.3013 201.03 22.4867 200.769 23.7C200.507 24.9133 200.097 26.0333 199.537 27.06C198.977 28.068 198.239 28.8893 197.325 29.524C196.429 30.14 195.327 30.448 194.021 30.448ZM194.189 29.356C194.991 29.356 195.654 29.104 196.177 28.6C196.699 28.096 197.11 27.424 197.409 26.584C197.726 25.744 197.95 24.82 198.081 23.812C198.211 22.7853 198.277 21.7587 198.277 20.732C198.277 19.5933 198.211 18.4547 198.081 17.316C197.95 16.1773 197.726 15.132 197.409 14.18C197.091 13.228 196.662 12.4627 196.121 11.884C195.579 11.3053 194.898 11.016 194.077 11.016C193.274 11.016 192.593 11.268 192.033 11.772C191.491 12.276 191.053 12.948 190.717 13.788C190.381 14.628 190.138 15.5613 189.989 16.588C189.839 17.6147 189.765 18.6507 189.765 19.696C189.765 20.48 189.802 21.3107 189.877 22.188C189.951 23.0653 190.082 23.9333 190.269 24.792C190.474 25.632 190.745 26.3973 191.081 27.088C191.417 27.7787 191.837 28.3293 192.341 28.74C192.845 29.1507 193.461 29.356 194.189 29.356ZM203.8 30C203.8 29.0107 203.949 28.1333 204.248 27.368C204.565 26.6027 204.985 25.9027 205.508 25.268C206.03 24.6147 206.618 23.9893 207.272 23.392C207.944 22.776 208.625 22.132 209.316 21.46C210.529 20.3027 211.406 19.2293 211.948 18.24C212.489 17.2507 212.76 16.2987 212.76 15.384C212.76 14.6747 212.657 13.9933 212.452 13.34C212.265 12.668 211.92 12.1173 211.416 11.688C210.912 11.2587 210.212 11.044 209.316 11.044C208.55 11.044 207.869 11.24 207.272 11.632C206.674 12.0053 206.273 12.472 206.068 13.032C206.254 13.2187 206.385 13.424 206.46 13.648C206.534 13.8533 206.572 14.0587 206.572 14.264C206.572 14.432 206.525 14.6187 206.432 14.824C206.357 15.0293 206.217 15.2067 206.012 15.356C205.806 15.5053 205.536 15.58 205.2 15.58C204.789 15.5613 204.472 15.4027 204.248 15.104C204.024 14.8053 203.912 14.4507 203.912 14.04C203.912 13.648 204.033 13.2187 204.276 12.752C204.518 12.2667 204.882 11.8187 205.368 11.408C205.872 10.9787 206.488 10.6333 207.216 10.372C207.944 10.092 208.793 9.952 209.764 9.952C210.51 9.952 211.229 10.0453 211.92 10.232C212.629 10.4 213.264 10.68 213.824 11.072C214.384 11.464 214.822 11.9867 215.14 12.64C215.476 13.2747 215.644 14.068 215.644 15.02C215.644 15.4867 215.541 15.9907 215.336 16.532C215.149 17.0733 214.832 17.6613 214.384 18.296C213.954 18.912 213.394 19.5747 212.704 20.284C212.013 20.9747 211.164 21.7307 210.156 22.552C208.886 23.5973 207.841 24.5867 207.02 25.52C206.217 26.4347 205.75 27.2187 205.62 27.872L210.576 28.012C211.49 28.0307 212.293 28.0307 212.984 28.012C213.693 27.9933 214.244 27.8533 214.636 27.592C215.046 27.312 215.252 26.808 215.252 26.08H216.092L215.924 30H203.8ZM224.281 30.448C222.937 30.448 221.826 30.252 220.949 29.86C220.071 29.4493 219.418 28.9453 218.989 28.348C218.578 27.7507 218.373 27.1813 218.373 26.64C218.373 26.2107 218.485 25.856 218.709 25.576C218.933 25.2773 219.25 25.1187 219.661 25.1C219.997 25.0813 220.258 25.1467 220.445 25.296C220.65 25.4267 220.79 25.5947 220.865 25.8C220.939 26.0053 220.977 26.192 220.977 26.36C220.977 26.5467 220.949 26.7333 220.893 26.92C220.837 27.1067 220.762 27.2933 220.669 27.48C220.855 28.1147 221.275 28.572 221.929 28.852C222.601 29.132 223.319 29.272 224.085 29.272C225.41 29.272 226.465 28.908 227.249 28.18C228.051 27.452 228.453 26.3973 228.453 25.016C228.453 24.1947 228.322 23.42 228.061 22.692C227.799 21.9453 227.314 21.3387 226.605 20.872C225.895 20.4053 224.859 20.1907 223.497 20.228C223.347 20.228 223.189 20.2373 223.021 20.256C222.853 20.256 222.666 20.2653 222.461 20.284V19.024C222.666 19.024 222.862 19.024 223.049 19.024C223.235 19.024 223.422 19.024 223.609 19.024C224.598 19.024 225.373 18.8 225.933 18.352C226.493 17.904 226.894 17.372 227.137 16.756C227.379 16.14 227.501 15.5707 227.501 15.048C227.501 14.2827 227.398 13.6013 227.193 13.004C227.006 12.388 226.67 11.912 226.185 11.576C225.699 11.2213 225.027 11.044 224.169 11.044C223.329 11.044 222.61 11.268 222.013 11.716C221.415 12.1453 221.042 12.5933 220.893 13.06C221.061 13.2467 221.173 13.4333 221.229 13.62C221.303 13.8067 221.341 14.0027 221.341 14.208C221.341 14.3573 221.294 14.5347 221.201 14.74C221.126 14.9267 220.995 15.0853 220.809 15.216C220.622 15.3467 220.37 15.412 220.053 15.412C219.661 15.412 219.362 15.272 219.157 14.992C218.951 14.712 218.849 14.376 218.849 13.984C218.849 13.4613 219.054 12.892 219.465 12.276C219.875 11.6413 220.501 11.1 221.341 10.652C222.199 10.1853 223.273 9.952 224.561 9.952C225.569 9.952 226.502 10.1107 227.361 10.428C228.219 10.7453 228.91 11.268 229.433 11.996C229.955 12.7053 230.217 13.648 230.217 14.824C230.217 15.4027 230.067 15.9907 229.769 16.588C229.489 17.1667 229.013 17.708 228.341 18.212C227.687 18.716 226.782 19.1453 225.625 19.5C227.398 19.6867 228.789 20.256 229.797 21.208C230.823 22.16 231.337 23.364 231.337 24.82C231.337 26.0893 231.001 27.144 230.329 27.984C229.675 28.8053 228.807 29.4213 227.725 29.832C226.661 30.2427 225.513 30.448 224.281 30.448Z" fill="#B8B8B8"/>
<path d="M13.777 103.1C15.024 103.168 15.97 103.508 16.616 104.12C17.273 104.721 17.602 105.508 17.602 106.483C17.602 107.163 17.438 107.769 17.109 108.302C16.78 108.823 16.293 109.237 15.647 109.543C15.001 109.849 14.213 110.002 13.284 110.002C12.423 110.002 11.607 109.866 10.836 109.594C10.077 109.311 9.465 108.937 9 108.472L9.595 107.503C9.992 107.911 10.519 108.245 11.176 108.506C11.833 108.755 12.536 108.88 13.284 108.88C14.259 108.88 15.012 108.67 15.545 108.251C16.078 107.82 16.344 107.231 16.344 106.483C16.344 105.746 16.078 105.168 15.545 104.749C15.012 104.33 14.208 104.12 13.131 104.12H12.281V103.219L15.579 99.088H9.49301V98H17.143V98.867L13.777 103.1Z" fill="#4A535C"/>
<path d="M53.319 106.772H50.939V109.9H49.715V106.772H43V105.888L49.307 98H50.667L44.581 105.684H49.749V102.93H50.939V105.684H53.319V106.772Z" fill="#4A535C"/>
<path d="M81.638 102.879C83.36 102.879 84.613 103.191 85.395 103.814C86.188 104.426 86.585 105.287 86.585 106.398C86.585 107.089 86.42 107.707 86.092 108.251C85.774 108.795 85.293 109.226 84.647 109.543C84.001 109.849 83.207 110.002 82.267 110.002C81.417 110.002 80.606 109.866 79.836 109.594C79.076 109.311 78.464 108.937 78 108.472L78.595 107.503C78.991 107.911 79.513 108.245 80.159 108.506C80.805 108.755 81.502 108.88 82.25 108.88C83.236 108.88 83.995 108.659 84.528 108.217C85.072 107.775 85.344 107.186 85.344 106.449C85.344 105.633 85.038 105.015 84.426 104.596C83.825 104.177 82.805 103.967 81.366 103.967H78.833L79.445 98H85.956V99.088H80.516L80.108 102.879H81.638Z" fill="#4A535C"/>
<path d="M120.93 102.879C121.712 102.879 122.403 103.026 123.004 103.321C123.616 103.616 124.092 104.035 124.432 104.579C124.772 105.112 124.942 105.735 124.942 106.449C124.942 107.174 124.766 107.815 124.415 108.37C124.064 108.925 123.576 109.356 122.953 109.662C122.341 109.957 121.65 110.104 120.879 110.104C119.304 110.104 118.097 109.588 117.258 108.557C116.419 107.514 116 106.047 116 104.154C116 102.828 116.227 101.706 116.68 100.788C117.133 99.87 117.768 99.179 118.584 98.714C119.4 98.238 120.352 98 121.44 98C122.619 98 123.559 98.215 124.262 98.646L123.769 99.632C123.202 99.258 122.432 99.071 121.457 99.071C120.142 99.071 119.111 99.49 118.363 100.329C117.615 101.156 117.241 102.363 117.241 103.95C117.241 104.233 117.258 104.556 117.292 104.919C117.587 104.273 118.057 103.774 118.703 103.423C119.349 103.06 120.091 102.879 120.93 102.879ZM120.828 109.067C121.689 109.067 122.386 108.835 122.919 108.37C123.463 107.894 123.735 107.265 123.735 106.483C123.735 105.701 123.463 105.078 122.919 104.613C122.386 104.148 121.661 103.916 120.743 103.916C120.142 103.916 119.61 104.029 119.145 104.256C118.692 104.483 118.335 104.794 118.074 105.191C117.813 105.588 117.683 106.03 117.683 106.517C117.683 106.97 117.802 107.39 118.04 107.775C118.289 108.16 118.652 108.472 119.128 108.71C119.604 108.948 120.171 109.067 120.828 109.067Z" fill="#4A535C"/>
<path d="M155.738 99V99.867L150.757 110.9H149.431L154.327 100.088H148.207V102.315H147V99H155.738Z" fill="#4A535C"/>
<path d="M185.885 104.763C186.633 105.012 187.205 105.386 187.602 105.885C188.01 106.384 188.214 106.984 188.214 107.687C188.214 108.378 188.027 108.985 187.653 109.506C187.279 110.016 186.741 110.413 186.038 110.696C185.347 110.968 184.531 111.104 183.59 111.104C182.162 111.104 181.04 110.798 180.224 110.186C179.408 109.574 179 108.741 179 107.687C179 106.973 179.193 106.372 179.578 105.885C179.975 105.386 180.547 105.012 181.295 104.763C180.683 104.525 180.218 104.185 179.901 103.743C179.584 103.29 179.425 102.757 179.425 102.145C179.425 101.182 179.799 100.417 180.547 99.85C181.306 99.283 182.321 99 183.59 99C184.429 99 185.16 99.13 185.783 99.391C186.418 99.64 186.911 100.003 187.262 100.479C187.613 100.955 187.789 101.51 187.789 102.145C187.789 102.757 187.625 103.29 187.296 103.743C186.967 104.185 186.497 104.525 185.885 104.763ZM180.649 102.179C180.649 102.836 180.91 103.358 181.431 103.743C181.952 104.128 182.672 104.321 183.59 104.321C184.508 104.321 185.228 104.128 185.749 103.743C186.282 103.358 186.548 102.842 186.548 102.196C186.548 101.527 186.276 101 185.732 100.615C185.199 100.23 184.485 100.037 183.59 100.037C182.683 100.037 181.964 100.23 181.431 100.615C180.91 101 180.649 101.522 180.649 102.179ZM183.59 110.067C184.644 110.067 185.466 109.852 186.055 109.421C186.656 108.99 186.956 108.407 186.956 107.67C186.956 106.933 186.656 106.355 186.055 105.936C185.466 105.505 184.644 105.29 183.59 105.29C182.547 105.29 181.726 105.505 181.125 105.936C180.536 106.355 180.241 106.933 180.241 107.67C180.241 108.418 180.536 109.007 181.125 109.438C181.714 109.857 182.536 110.067 183.59 110.067Z" fill="#4A535C"/>
<path d="M219.063 98C220.639 98 221.846 98.521 222.684 99.564C223.523 100.595 223.942 102.057 223.942 103.95C223.942 105.276 223.716 106.398 223.262 107.316C222.809 108.234 222.174 108.931 221.358 109.407C220.542 109.872 219.59 110.104 218.502 110.104C217.324 110.104 216.383 109.889 215.68 109.458L216.173 108.472C216.74 108.846 217.511 109.033 218.485 109.033C219.8 109.033 220.831 108.619 221.579 107.792C222.327 106.953 222.701 105.741 222.701 104.154C222.701 103.859 222.684 103.536 222.65 103.185C222.356 103.831 221.885 104.335 221.239 104.698C220.593 105.049 219.851 105.225 219.012 105.225C218.23 105.225 217.533 105.078 216.921 104.783C216.321 104.488 215.85 104.075 215.51 103.542C215.17 102.998 215 102.369 215 101.655C215 100.93 215.176 100.289 215.527 99.734C215.879 99.179 216.36 98.754 216.972 98.459C217.596 98.153 218.293 98 219.063 98ZM219.199 104.188C219.8 104.188 220.327 104.075 220.78 103.848C221.245 103.621 221.608 103.31 221.868 102.913C222.129 102.516 222.259 102.074 222.259 101.587C222.259 101.134 222.135 100.714 221.885 100.329C221.647 99.944 221.29 99.632 220.814 99.394C220.338 99.156 219.772 99.037 219.114 99.037C218.253 99.037 217.55 99.275 217.006 99.751C216.474 100.216 216.207 100.839 216.207 101.621C216.207 102.403 216.474 103.026 217.006 103.491C217.55 103.956 218.281 104.188 219.199 104.188Z" fill="#4A535C"/>
<path d="M8.02901 130.102V142.002H6.80501V131.19H4V130.102H8.02901ZM15.616 142.104C14.698 142.104 13.877 141.86 13.151 141.373C12.437 140.886 11.876 140.189 11.468 139.282C11.072 138.364 10.873 137.287 10.873 136.052C10.873 134.817 11.072 133.746 11.468 132.839C11.876 131.921 12.437 131.218 13.151 130.731C13.877 130.244 14.698 130 15.616 130C16.534 130 17.35 130.244 18.064 130.731C18.79 131.218 19.356 131.921 19.764 132.839C20.172 133.746 20.376 134.817 20.376 136.052C20.376 137.287 20.172 138.364 19.764 139.282C19.356 140.189 18.79 140.886 18.064 141.373C17.35 141.86 16.534 142.104 15.616 142.104ZM15.616 140.982C16.308 140.982 16.914 140.789 17.435 140.404C17.968 140.019 18.382 139.458 18.676 138.721C18.971 137.984 19.118 137.095 19.118 136.052C19.118 135.009 18.971 134.12 18.676 133.383C18.382 132.646 17.968 132.085 17.435 131.7C16.914 131.315 16.308 131.122 15.616 131.122C14.925 131.122 14.313 131.315 13.78 131.7C13.259 132.085 12.851 132.646 12.556 133.383C12.262 134.12 12.114 135.009 12.114 136.052C12.114 137.095 12.262 137.984 12.556 138.721C12.851 139.458 13.259 140.019 13.78 140.404C14.313 140.789 14.925 140.982 15.616 140.982Z" fill="#4A535C"/>
<path d="M8.02901 142.002V130.102H4V131.19H6.80501V142.002H8.02901Z" fill="#4A535C"/>
<path d="M43.029 130V141.9H41.805V131.088H39V130H43.029Z" fill="#4A535C"/>
<path d="M52.029 130V141.9H50.805V131.088H48V130H52.029Z" fill="#4A535C"/>
<path d="M79.029 130.102V142.002H77.805V131.19H75V130.102H79.029ZM89.999 140.914V142.002H81.652V141.135L86.599 136.29C87.223 135.678 87.642 135.151 87.857 134.709C88.084 134.256 88.197 133.802 88.197 133.349C88.197 132.646 87.954 132.102 87.466 131.717C86.99 131.32 86.305 131.122 85.409 131.122C84.015 131.122 82.933 131.564 82.162 132.448L81.295 131.7C81.76 131.156 82.349 130.737 83.063 130.442C83.789 130.147 84.605 130 85.511 130C86.724 130 87.682 130.289 88.384 130.867C89.098 131.434 89.455 132.216 89.455 133.213C89.455 133.825 89.319 134.414 89.047 134.981C88.775 135.548 88.26 136.199 87.5 136.936L83.454 140.914H89.999Z" fill="#4A535C"/>
<path d="M115.029 130V141.9H113.805V131.088H111V130H115.029ZM121.92 135.1C123.166 135.168 124.113 135.508 124.759 136.12C125.416 136.721 125.745 137.508 125.745 138.483C125.745 139.163 125.58 139.769 125.252 140.302C124.923 140.823 124.436 141.237 123.79 141.543C123.144 141.849 122.356 142.002 121.427 142.002C120.565 142.002 119.749 141.866 118.979 141.594C118.219 141.311 117.607 140.937 117.143 140.472L117.738 139.503C118.134 139.911 118.661 140.245 119.319 140.506C119.976 140.755 120.679 140.88 121.427 140.88C122.401 140.88 123.155 140.67 123.688 140.251C124.22 139.82 124.487 139.231 124.487 138.483C124.487 137.746 124.22 137.168 123.688 136.749C123.155 136.33 122.35 136.12 121.274 136.12H120.424V135.219L123.722 131.088H117.636V130H125.286V130.867L121.92 135.1Z" fill="#4A535C"/>
<path d="M148.029 130V141.9H146.805V131.088H144V130H148.029ZM160.989 138.772H158.609V141.9H157.385V138.772H150.67V137.888L156.977 130H158.337L152.251 137.684H157.419V134.93H158.609V137.684H160.989V138.772Z" fill="black"/>
<path d="M181.029 130V141.9H179.805V131.088H177V130H181.029ZM187.001 134.879C188.724 134.879 189.976 135.191 190.758 135.814C191.552 136.426 191.948 137.287 191.948 138.398C191.948 139.089 191.784 139.707 191.455 140.251C191.138 140.795 190.656 141.226 190.01 141.543C189.364 141.849 188.571 142.002 187.63 142.002C186.78 142.002 185.97 141.866 185.199 141.594C184.44 141.311 183.828 140.937 183.363 140.472L183.958 139.503C184.355 139.911 184.876 140.245 185.522 140.506C186.168 140.755 186.865 140.88 187.613 140.88C188.599 140.88 189.359 140.659 189.891 140.217C190.435 139.775 190.707 139.186 190.707 138.449C190.707 137.633 190.401 137.015 189.789 136.596C189.189 136.177 188.169 135.967 186.729 135.967H184.196L184.808 130H191.319V131.088H185.879L185.471 134.879H187.001Z" fill="#4A535C"/>
<path d="M216.029 130.102V142.002H214.805V131.19H212V130.102H216.029ZM223.804 134.879C224.586 134.879 225.277 135.026 225.878 135.321C226.49 135.616 226.966 136.035 227.306 136.579C227.646 137.112 227.816 137.735 227.816 138.449C227.816 139.174 227.64 139.815 227.289 140.37C226.937 140.925 226.45 141.356 225.827 141.662C225.215 141.957 224.523 142.104 223.753 142.104C222.177 142.104 220.97 141.588 220.132 140.557C219.293 139.514 218.874 138.047 218.874 136.154C218.874 134.828 219.1 133.706 219.554 132.788C220.007 131.87 220.642 131.179 221.458 130.714C222.274 130.238 223.226 130 224.314 130C225.492 130 226.433 130.215 227.136 130.646L226.643 131.632C226.076 131.258 225.305 131.071 224.331 131.071C223.016 131.071 221.985 131.49 221.237 132.329C220.489 133.156 220.115 134.363 220.115 135.95C220.115 136.233 220.132 136.556 220.166 136.919C220.46 136.273 220.931 135.774 221.577 135.423C222.223 135.06 222.965 134.879 223.804 134.879ZM223.702 141.067C224.563 141.067 225.26 140.835 225.793 140.37C226.337 139.894 226.609 139.265 226.609 138.483C226.609 137.701 226.337 137.078 225.793 136.613C225.26 136.148 224.535 135.916 223.617 135.916C223.016 135.916 222.483 136.029 222.019 136.256C221.565 136.483 221.208 136.794 220.948 137.191C220.687 137.588 220.557 138.03 220.557 138.517C220.557 138.97 220.676 139.39 220.914 139.775C221.163 140.16 221.526 140.472 222.002 140.71C222.478 140.948 223.044 141.067 223.702 141.067Z" fill="#4A535C"/>
<path d="M8.02899 161V172.9H6.80499V162.088H4V161H8.02899ZM19.272 161V161.867L14.291 172.9H12.965L17.861 162.088H11.741V164.315H10.534V161H19.272Z" fill="#4A535C"/>
<path d="M43.029 161.102V173.002H41.805V162.19H39V161.102H43.029ZM52.691 166.763C53.439 167.012 54.011 167.386 54.408 167.885C54.816 168.384 55.02 168.984 55.02 169.687C55.02 170.378 54.833 170.985 54.459 171.506C54.085 172.016 53.547 172.413 52.844 172.696C52.153 172.968 51.337 173.104 50.396 173.104C48.968 173.104 47.846 172.798 47.03 172.186C46.214 171.574 45.806 170.741 45.806 169.687C45.806 168.973 45.999 168.372 46.384 167.885C46.781 167.386 47.353 167.012 48.101 166.763C47.489 166.525 47.024 166.185 46.707 165.743C46.39 165.29 46.231 164.757 46.231 164.145C46.231 163.182 46.605 162.417 47.353 161.85C48.112 161.283 49.127 161 50.396 161C51.235 161 51.966 161.13 52.589 161.391C53.224 161.64 53.717 162.003 54.068 162.479C54.419 162.955 54.595 163.51 54.595 164.145C54.595 164.757 54.431 165.29 54.102 165.743C53.773 166.185 53.303 166.525 52.691 166.763ZM47.455 164.179C47.455 164.836 47.716 165.358 48.237 165.743C48.758 166.128 49.478 166.321 50.396 166.321C51.314 166.321 52.034 166.128 52.555 165.743C53.088 165.358 53.354 164.842 53.354 164.196C53.354 163.527 53.082 163 52.538 162.615C52.005 162.23 51.291 162.037 50.396 162.037C49.489 162.037 48.77 162.23 48.237 162.615C47.716 163 47.455 163.522 47.455 164.179ZM50.396 172.067C51.45 172.067 52.272 171.852 52.861 171.421C53.462 170.99 53.762 170.407 53.762 169.67C53.762 168.933 53.462 168.355 52.861 167.936C52.272 167.505 51.45 167.29 50.396 167.29C49.353 167.29 48.532 167.505 47.931 167.936C47.342 168.355 47.047 168.933 47.047 169.67C47.047 170.418 47.342 171.007 47.931 171.438C48.52 171.857 49.342 172.067 50.396 172.067Z" fill="#4A535C"/>
<path d="M79.029 161.102V173.002H77.805V162.19H75V161.102H79.029ZM85.58 161C87.155 161 88.362 161.521 89.201 162.564C90.039 163.595 90.459 165.057 90.459 166.95C90.459 168.276 90.232 169.398 89.779 170.316C89.325 171.234 88.691 171.931 87.875 172.407C87.059 172.872 86.107 173.104 85.019 173.104C83.84 173.104 82.899 172.889 82.197 172.458L82.69 171.472C83.256 171.846 84.027 172.033 85.002 172.033C86.316 172.033 87.348 171.619 88.096 170.792C88.844 169.953 89.218 168.741 89.218 167.154C89.218 166.859 89.201 166.536 89.167 166.185C88.872 166.831 88.402 167.335 87.756 167.698C87.11 168.049 86.367 168.225 85.529 168.225C84.747 168.225 84.05 168.078 83.438 167.783C82.837 167.488 82.367 167.075 82.027 166.542C81.687 165.998 81.517 165.369 81.517 164.655C81.517 163.93 81.692 163.289 82.044 162.734C82.395 162.179 82.877 161.754 83.489 161.459C84.112 161.153 84.809 161 85.58 161ZM85.716 167.188C86.316 167.188 86.843 167.075 87.297 166.848C87.761 166.621 88.124 166.31 88.385 165.913C88.645 165.516 88.776 165.074 88.776 164.587C88.776 164.134 88.651 163.714 88.402 163.329C88.164 162.944 87.807 162.632 87.331 162.394C86.855 162.156 86.288 162.037 85.631 162.037C84.769 162.037 84.067 162.275 83.523 162.751C82.99 163.216 82.724 163.839 82.724 164.621C82.724 165.403 82.99 166.026 83.523 166.491C84.067 166.956 84.798 167.188 85.716 167.188Z" fill="#4A535C"/>
<path d="M116.704 171.914V173.002H108.357V172.135L113.304 167.29C113.927 166.678 114.347 166.151 114.562 165.709C114.789 165.256 114.902 164.802 114.902 164.349C114.902 163.646 114.658 163.102 114.171 162.717C113.695 162.32 113.009 162.122 112.114 162.122C110.72 162.122 109.638 162.564 108.867 163.448L108 162.7C108.465 162.156 109.054 161.737 109.768 161.442C110.493 161.147 111.309 161 112.216 161C113.429 161 114.386 161.289 115.089 161.867C115.803 162.434 116.16 163.216 116.16 164.213C116.16 164.825 116.024 165.414 115.752 165.981C115.48 166.548 114.964 167.199 114.205 167.936L110.159 171.914H116.704ZM122.917 173.104C121.999 173.104 121.177 172.86 120.452 172.373C119.738 171.886 119.177 171.189 118.769 170.282C118.372 169.364 118.174 168.287 118.174 167.052C118.174 165.817 118.372 164.746 118.769 163.839C119.177 162.921 119.738 162.218 120.452 161.731C121.177 161.244 121.999 161 122.917 161C123.835 161 124.651 161.244 125.365 161.731C126.09 162.218 126.657 162.921 127.065 163.839C127.473 164.746 127.677 165.817 127.677 167.052C127.677 168.287 127.473 169.364 127.065 170.282C126.657 171.189 126.09 171.886 125.365 172.373C124.651 172.86 123.835 173.104 122.917 173.104ZM122.917 171.982C123.608 171.982 124.214 171.789 124.736 171.404C125.268 171.019 125.682 170.458 125.977 169.721C126.271 168.984 126.419 168.095 126.419 167.052C126.419 166.009 126.271 165.12 125.977 164.383C125.682 163.646 125.268 163.085 124.736 162.7C124.214 162.315 123.608 162.122 122.917 162.122C122.225 162.122 121.613 162.315 121.081 162.7C120.559 163.085 120.151 163.646 119.857 164.383C119.562 165.12 119.415 166.009 119.415 167.052C119.415 168.095 119.562 168.984 119.857 169.721C120.151 170.458 120.559 171.019 121.081 171.404C121.613 171.789 122.225 171.982 122.917 171.982Z" fill="#4A535C"/>
<path d="M152.704 171.914V173.002H144.357V172.135L149.304 167.29C149.927 166.678 150.347 166.151 150.562 165.709C150.789 165.256 150.902 164.802 150.902 164.349C150.902 163.646 150.658 163.102 150.171 162.717C149.695 162.32 149.009 162.122 148.114 162.122C146.72 162.122 145.638 162.564 144.867 163.448L144 162.7C144.465 162.156 145.054 161.737 145.768 161.442C146.493 161.147 147.309 161 148.216 161C149.429 161 150.386 161.289 151.089 161.867C151.803 162.434 152.16 163.216 152.16 164.213C152.16 164.825 152.024 165.414 151.752 165.981C151.48 166.548 150.964 167.199 150.205 167.936L146.159 171.914H152.704ZM157.538 161.102V173.002H156.314V162.19H153.509V161.102H157.538Z" fill="#4A535C"/>
<path d="M183.704 171.914V173.002H175.357V172.135L180.304 167.29C180.927 166.678 181.347 166.151 181.562 165.709C181.789 165.256 181.902 164.802 181.902 164.349C181.902 163.646 181.658 163.102 181.171 162.717C180.695 162.32 180.009 162.122 179.114 162.122C177.72 162.122 176.638 162.564 175.867 163.448L175 162.7C175.465 162.156 176.054 161.737 176.768 161.442C177.493 161.147 178.309 161 179.216 161C180.429 161 181.386 161.289 182.089 161.867C182.803 162.434 183.16 163.216 183.16 164.213C183.16 164.825 183.024 165.414 182.752 165.981C182.48 166.548 181.964 167.199 181.205 167.936L177.159 171.914H183.704ZM193.366 171.914V173.002H185.019V172.135L189.966 167.29C190.589 166.678 191.009 166.151 191.224 165.709C191.451 165.256 191.564 164.802 191.564 164.349C191.564 163.646 191.32 163.102 190.833 162.717C190.357 162.32 189.671 162.122 188.776 162.122C187.382 162.122 186.3 162.564 185.529 163.448L184.662 162.7C185.127 162.156 185.716 161.737 186.43 161.442C187.155 161.147 187.971 161 188.878 161C190.091 161 191.048 161.289 191.751 161.867C192.465 162.434 192.822 163.216 192.822 164.213C192.822 164.825 192.686 165.414 192.414 165.981C192.142 166.548 191.626 167.199 190.867 167.936L186.821 171.914H193.366Z" fill="#4A535C"/>
<path d="M218.704 171.914V173.002H210.357V172.135L215.304 167.29C215.927 166.678 216.347 166.151 216.562 165.709C216.789 165.256 216.902 164.802 216.902 164.349C216.902 163.646 216.658 163.102 216.171 162.717C215.695 162.32 215.009 162.122 214.114 162.122C212.72 162.122 211.638 162.564 210.867 163.448L210 162.7C210.465 162.156 211.054 161.737 211.768 161.442C212.493 161.147 213.309 161 214.216 161C215.429 161 216.386 161.289 217.089 161.867C217.803 162.434 218.16 163.216 218.16 164.213C218.16 164.825 218.024 165.414 217.752 165.981C217.48 166.548 216.964 167.199 216.205 167.936L212.159 171.914H218.704ZM224.286 166.202C225.533 166.27 226.479 166.61 227.125 167.222C227.783 167.823 228.111 168.61 228.111 169.585C228.111 170.265 227.947 170.871 227.618 171.404C227.29 171.925 226.802 172.339 226.156 172.645C225.51 172.951 224.723 173.104 223.793 173.104C222.932 173.104 222.116 172.968 221.345 172.696C220.586 172.413 219.974 172.039 219.509 171.574L220.104 170.605C220.501 171.013 221.028 171.347 221.685 171.608C222.343 171.857 223.045 171.982 223.793 171.982C224.768 171.982 225.522 171.772 226.054 171.353C226.587 170.922 226.853 170.333 226.853 169.585C226.853 168.848 226.587 168.27 226.054 167.851C225.522 167.432 224.717 167.222 223.64 167.222H222.79V166.321L226.088 162.19H220.002V161.102H227.652V161.969L224.286 166.202Z" fill="#4A535C"/>
<path d="M11.704 202.914V204.002H3.35701V203.135L8.304 198.29C8.927 197.678 9.34601 197.151 9.56201 196.709C9.78801 196.256 9.90201 195.802 9.90201 195.349C9.90201 194.646 9.65801 194.102 9.17101 193.717C8.69501 193.32 8.00901 193.122 7.11401 193.122C5.72001 193.122 4.637 193.564 3.867 194.448L3 193.7C3.464 193.156 4.05401 192.737 4.76801 192.442C5.49301 192.147 6.309 192 7.216 192C8.428 192 9.386 192.289 10.089 192.867C10.803 193.434 11.16 194.216 11.16 195.213C11.16 195.825 11.024 196.414 10.752 196.981C10.48 197.548 9.964 198.199 9.205 198.936L5.15901 202.914H11.704ZM22.956 200.874H20.576V204.002H19.352V200.874H12.637V199.99L18.944 192.102H20.304L14.218 199.786H19.386V197.032H20.576V199.786H22.956V200.874Z" fill="#4A535C"/>
<path d="M46.704 202.914V204.002H38.357V203.135L43.304 198.29C43.928 197.678 44.347 197.151 44.562 196.709C44.789 196.256 44.902 195.802 44.902 195.349C44.902 194.646 44.659 194.102 44.171 193.717C43.695 193.32 43.01 193.122 42.114 193.122C40.72 193.122 39.638 193.564 38.867 194.448L38 193.7C38.465 193.156 39.054 192.737 39.768 192.442C40.494 192.147 41.31 192 42.216 192C43.429 192 44.387 192.289 45.089 192.867C45.803 193.434 46.16 194.216 46.16 195.213C46.16 195.825 46.024 196.414 45.752 196.981C45.48 197.548 44.965 198.199 44.205 198.936L40.159 202.914H46.704ZM51.369 196.981C53.091 196.981 54.344 197.293 55.126 197.916C55.919 198.528 56.316 199.389 56.316 200.5C56.316 201.191 56.151 201.809 55.823 202.353C55.505 202.897 55.024 203.328 54.378 203.645C53.732 203.951 52.938 204.104 51.998 204.104C51.148 204.104 50.337 203.968 49.567 203.696C48.807 203.413 48.195 203.039 47.731 202.574L48.326 201.605C48.722 202.013 49.244 202.347 49.89 202.608C50.536 202.857 51.233 202.982 51.981 202.982C52.967 202.982 53.726 202.761 54.259 202.319C54.803 201.877 55.075 201.288 55.075 200.551C55.075 199.735 54.769 199.117 54.157 198.698C53.556 198.279 52.536 198.069 51.097 198.069H48.564L49.176 192.102H55.687V193.19H50.247L49.839 196.981H51.369Z" fill="#4A535C"/>
<path d="M80.704 202.914V204.002H72.357V203.135L77.304 198.29C77.928 197.678 78.347 197.151 78.562 196.709C78.789 196.256 78.902 195.802 78.902 195.349C78.902 194.646 78.659 194.102 78.171 193.717C77.695 193.32 77.01 193.122 76.114 193.122C74.72 193.122 73.638 193.564 72.867 194.448L72 193.7C72.465 193.156 73.054 192.737 73.768 192.442C74.494 192.147 75.31 192 76.216 192C77.429 192 78.387 192.289 79.089 192.867C79.803 193.434 80.16 194.216 80.16 195.213C80.16 195.825 80.024 196.414 79.752 196.981C79.48 197.548 78.965 198.199 78.205 198.936L74.159 202.914H80.704ZM87.104 196.879C87.886 196.879 88.577 197.026 89.178 197.321C89.79 197.616 90.266 198.035 90.606 198.579C90.946 199.112 91.116 199.735 91.116 200.449C91.116 201.174 90.94 201.815 90.589 202.37C90.238 202.925 89.75 203.356 89.127 203.662C88.515 203.957 87.824 204.104 87.053 204.104C85.478 204.104 84.271 203.588 83.432 202.557C82.593 201.514 82.174 200.047 82.174 198.154C82.174 196.828 82.401 195.706 82.854 194.788C83.307 193.87 83.942 193.179 84.758 192.714C85.574 192.238 86.526 192 87.614 192C88.793 192 89.733 192.215 90.436 192.646L89.943 193.632C89.376 193.258 88.606 193.071 87.631 193.071C86.316 193.071 85.285 193.49 84.537 194.329C83.789 195.156 83.415 196.363 83.415 197.95C83.415 198.233 83.432 198.556 83.466 198.919C83.761 198.273 84.231 197.774 84.877 197.423C85.523 197.06 86.265 196.879 87.104 196.879ZM87.002 203.067C87.863 203.067 88.56 202.835 89.093 202.37C89.637 201.894 89.909 201.265 89.909 200.483C89.909 199.701 89.637 199.078 89.093 198.613C88.56 198.148 87.835 197.916 86.917 197.916C86.316 197.916 85.784 198.029 85.319 198.256C84.866 198.483 84.509 198.794 84.248 199.191C83.987 199.588 83.857 200.03 83.857 200.517C83.857 200.97 83.976 201.39 84.214 201.775C84.463 202.16 84.826 202.472 85.302 202.71C85.778 202.948 86.345 203.067 87.002 203.067Z" fill="#4A535C"/>
<path d="M115.704 202.914V204.002H107.357V203.135L112.304 198.29C112.927 197.678 113.347 197.151 113.562 196.709C113.789 196.256 113.902 195.802 113.902 195.349C113.902 194.646 113.658 194.102 113.171 193.717C112.695 193.32 112.009 193.122 111.114 193.122C109.72 193.122 108.638 193.564 107.867 194.448L107 193.7C107.465 193.156 108.054 192.737 108.768 192.442C109.493 192.147 110.309 192 111.216 192C112.429 192 113.386 192.289 114.089 192.867C114.803 193.434 115.16 194.216 115.16 195.213C115.16 195.825 115.024 196.414 114.752 196.981C114.48 197.548 113.964 198.199 113.205 198.936L109.159 202.914H115.704ZM125.572 192.102V192.969L120.591 204.002H119.265L124.161 193.19H118.041V195.417H116.834V192.102H125.572Z" fill="#4A535C"/>
<path d="M150.704 202.914V204.002H142.357V203.135L147.304 198.29C147.927 197.678 148.347 197.151 148.562 196.709C148.789 196.256 148.902 195.802 148.902 195.349C148.902 194.646 148.658 194.102 148.171 193.717C147.695 193.32 147.009 193.122 146.114 193.122C144.72 193.122 143.638 193.564 142.867 194.448L142 193.7C142.465 193.156 143.054 192.737 143.768 192.442C144.493 192.147 145.309 192 146.216 192C147.429 192 148.386 192.289 149.089 192.867C149.803 193.434 150.16 194.216 150.16 195.213C150.16 195.825 150.024 196.414 149.752 196.981C149.48 197.548 148.964 198.199 148.205 198.936L144.159 202.914H150.704ZM159.057 197.763C159.805 198.012 160.378 198.386 160.774 198.885C161.182 199.384 161.386 199.984 161.386 200.687C161.386 201.378 161.199 201.985 160.825 202.506C160.451 203.016 159.913 203.413 159.21 203.696C158.519 203.968 157.703 204.104 156.762 204.104C155.334 204.104 154.212 203.798 153.396 203.186C152.58 202.574 152.172 201.741 152.172 200.687C152.172 199.973 152.365 199.372 152.75 198.885C153.147 198.386 153.719 198.012 154.467 197.763C153.855 197.525 153.391 197.185 153.073 196.743C152.756 196.29 152.597 195.757 152.597 195.145C152.597 194.182 152.971 193.417 153.719 192.85C154.479 192.283 155.493 192 156.762 192C157.601 192 158.332 192.13 158.955 192.391C159.59 192.64 160.083 193.003 160.434 193.479C160.786 193.955 160.961 194.51 160.961 195.145C160.961 195.757 160.797 196.29 160.468 196.743C160.139 197.185 159.669 197.525 159.057 197.763ZM153.821 195.179C153.821 195.836 154.082 196.358 154.603 196.743C155.125 197.128 155.844 197.321 156.762 197.321C157.68 197.321 158.4 197.128 158.921 196.743C159.454 196.358 159.72 195.842 159.72 195.196C159.72 194.527 159.448 194 158.904 193.615C158.371 193.23 157.658 193.037 156.762 193.037C155.856 193.037 155.136 193.23 154.603 193.615C154.082 194 153.821 194.522 153.821 195.179ZM156.762 203.067C157.816 203.067 158.638 202.852 159.227 202.421C159.828 201.99 160.128 201.407 160.128 200.67C160.128 199.933 159.828 199.355 159.227 198.936C158.638 198.505 157.816 198.29 156.762 198.29C155.72 198.29 154.898 198.505 154.297 198.936C153.708 199.355 153.413 199.933 153.413 200.67C153.413 201.418 153.708 202.007 154.297 202.438C154.887 202.857 155.708 203.067 156.762 203.067Z" fill="#4A535C"/>
<path d="M186.704 201.914V203.002H178.357V202.135L183.304 197.29C183.927 196.678 184.347 196.151 184.562 195.709C184.789 195.256 184.902 194.802 184.902 194.349C184.902 193.646 184.658 193.102 184.171 192.717C183.695 192.32 183.009 192.122 182.114 192.122C180.72 192.122 179.638 192.564 178.867 193.448L178 192.7C178.465 192.156 179.054 191.737 179.768 191.442C180.493 191.147 181.309 191 182.216 191C183.429 191 184.386 191.289 185.089 191.867C185.803 192.434 186.16 193.216 186.16 194.213C186.16 194.825 186.024 195.414 185.752 195.981C185.48 196.548 184.964 197.199 184.205 197.936L180.159 201.914H186.704ZM191.946 191C193.521 191 194.728 191.521 195.567 192.564C196.406 193.595 196.825 195.057 196.825 196.95C196.825 198.276 196.598 199.398 196.145 200.316C195.692 201.234 195.057 201.931 194.241 202.407C193.425 202.872 192.473 203.104 191.385 203.104C190.206 203.104 189.266 202.889 188.563 202.458L189.056 201.472C189.623 201.846 190.393 202.033 191.368 202.033C192.683 202.033 193.714 201.619 194.462 200.792C195.21 199.953 195.584 198.741 195.584 197.154C195.584 196.859 195.567 196.536 195.533 196.185C195.238 196.831 194.768 197.335 194.122 197.698C193.476 198.049 192.734 198.225 191.895 198.225C191.113 198.225 190.416 198.078 189.804 197.783C189.203 197.488 188.733 197.075 188.393 196.542C188.053 195.998 187.883 195.369 187.883 194.655C187.883 193.93 188.059 193.289 188.41 192.734C188.761 192.179 189.243 191.754 189.855 191.459C190.478 191.153 191.175 191 191.946 191ZM192.082 197.188C192.683 197.188 193.21 197.075 193.663 196.848C194.128 196.621 194.49 196.31 194.751 195.913C195.012 195.516 195.142 195.074 195.142 194.587C195.142 194.134 195.017 193.714 194.768 193.329C194.53 192.944 194.173 192.632 193.697 192.394C193.221 192.156 192.654 192.037 191.997 192.037C191.136 192.037 190.433 192.275 189.889 192.751C189.356 193.216 189.09 193.839 189.09 194.621C189.09 195.403 189.356 196.026 189.889 196.491C190.433 196.956 191.164 197.188 192.082 197.188Z" fill="#4A535C"/>
<path d="M215.777 195.202C217.024 195.27 217.97 195.61 218.616 196.222C219.274 196.823 219.602 197.61 219.602 198.585C219.602 199.265 219.438 199.871 219.109 200.404C218.781 200.925 218.293 201.339 217.647 201.645C217.001 201.951 216.214 202.104 215.284 202.104C214.423 202.104 213.607 201.968 212.836 201.696C212.077 201.413 211.465 201.039 211 200.574L211.595 199.605C211.992 200.013 212.519 200.347 213.176 200.608C213.834 200.857 214.536 200.982 215.284 200.982C216.259 200.982 217.013 200.772 217.545 200.353C218.078 199.922 218.344 199.333 218.344 198.585C218.344 197.848 218.078 197.27 217.545 196.851C217.013 196.432 216.208 196.222 215.131 196.222H214.281V195.321L217.579 191.19H211.493V190.102H219.143V190.969L215.777 195.202ZM226.07 202.104C225.152 202.104 224.33 201.86 223.605 201.373C222.891 200.886 222.33 200.189 221.922 199.282C221.525 198.364 221.327 197.287 221.327 196.052C221.327 194.817 221.525 193.746 221.922 192.839C222.33 191.921 222.891 191.218 223.605 190.731C224.33 190.244 225.152 190 226.07 190C226.988 190 227.804 190.244 228.518 190.731C229.243 191.218 229.81 191.921 230.218 192.839C230.626 193.746 230.83 194.817 230.83 196.052C230.83 197.287 230.626 198.364 230.218 199.282C229.81 200.189 229.243 200.886 228.518 201.373C227.804 201.86 226.988 202.104 226.07 202.104ZM226.07 200.982C226.761 200.982 227.368 200.789 227.889 200.404C228.422 200.019 228.835 199.458 229.13 198.721C229.425 197.984 229.572 197.095 229.572 196.052C229.572 195.009 229.425 194.12 229.13 193.383C228.835 192.646 228.422 192.085 227.889 191.7C227.368 191.315 226.761 191.122 226.07 191.122C225.379 191.122 224.767 191.315 224.234 191.7C223.713 192.085 223.305 192.646 223.01 193.383C222.715 194.12 222.568 195.009 222.568 196.052C222.568 197.095 222.715 197.984 223.01 198.721C223.305 199.458 223.713 200.019 224.234 200.404C224.767 200.789 225.379 200.982 226.07 200.982Z" fill="#4A535C"/>
<path d="M9.77701 227.1C11.024 227.168 11.97 227.508 12.616 228.12C13.273 228.721 13.602 229.508 13.602 230.483C13.602 231.163 13.438 231.769 13.109 232.302C12.78 232.823 12.293 233.237 11.647 233.543C11.001 233.849 10.213 234.002 9.284 234.002C8.423 234.002 7.607 233.866 6.836 233.594C6.077 233.311 5.465 232.937 5 232.472L5.595 231.503C5.992 231.911 6.51901 232.245 7.17601 232.506C7.83301 232.755 8.536 232.88 9.284 232.88C10.259 232.88 11.012 232.67 11.545 232.251C12.078 231.82 12.344 231.231 12.344 230.483C12.344 229.746 12.078 229.168 11.545 228.749C11.012 228.33 10.208 228.12 9.131 228.12H8.28101V227.219L11.579 223.088H5.493V222H13.143V222.867L9.77701 227.1ZM18.625 222V233.9H17.401V223.088H14.596V222H18.625Z" fill="#4A535C"/>
<path d="M143.434 121.061C140.682 121.307 138.149 122.52 136.197 124.526C134.591 126.185 133.598 128.111 133.125 130.483C132.958 131.336 132.958 133.762 133.125 134.615C133.478 136.387 134.178 138.02 135.177 139.399C135.537 139.892 151.863 156.305 151.997 156.305C152.103 156.305 168.089 140.266 168.469 139.779C169.949 137.873 170.755 135.821 170.961 133.395C171.188 130.803 170.408 128.004 168.836 125.785C168.263 124.979 167.037 123.746 166.224 123.173C162.745 120.708 158.2 120.328 154.395 122.18C153.716 122.514 152.869 123.033 152.396 123.413C152.25 123.533 152.096 123.646 152.057 123.673C152.017 123.693 151.67 123.493 151.29 123.22C150.477 122.634 148.991 121.874 148.112 121.587C147.285 121.321 146.359 121.141 145.433 121.054C144.58 120.981 144.34 120.981 143.434 121.061ZM146.512 122.913C148.312 123.3 149.944 124.166 151.317 125.452L151.97 126.072L152.15 125.912C152.25 125.825 152.563 125.539 152.849 125.272C154.016 124.193 155.375 123.46 157.008 123.027C158.833 122.54 161.039 122.64 162.825 123.287C167.59 125.012 170.255 130.09 168.976 135.015C168.642 136.301 168.096 137.434 167.316 138.46C167.057 138.806 164.144 141.765 159.433 146.476L151.963 153.94L144.493 146.476C139.695 141.678 136.877 138.813 136.603 138.453C135.784 137.367 135.144 135.928 134.831 134.448C134.638 133.522 134.618 131.729 134.791 130.817C135.077 129.337 135.764 127.765 136.597 126.652C137.49 125.459 138.876 124.319 140.195 123.693C141.108 123.253 142.361 122.887 143.367 122.76C143.967 122.687 145.879 122.78 146.512 122.913Z" fill="black" fill-opacity="0.8"/>
</g>
<defs>
<clipPath id="clip0_308_61">
<rect width="233" height="234" fill="white"/>
</clipPath>
</defs>
</svg>
