<svg width="382" height="43" viewBox="0 0 382 43" fill="none" xmlns="http://www.w3.org/2000/svg">
<path d="M192.25 21.25C192.25 32.848 201.652 42.25 213.25 42.25C224.848 42.25 234.25 32.848 234.25 21.25C234.25 9.65202 224.848 0.25 213.25 0.25C201.652 0.25 192.25 9.65202 192.25 21.25Z" fill="#78593A"/>
<path d="M96 21.25C96 32.848 105.402 42.25 117 42.25C128.598 42.25 138 32.848 138 21.25C138 9.65202 128.598 0.25 117 0.25C105.402 0.25 96 9.65202 96 21.25Z" fill="#BAD7B9" fill-opacity="0.7"/>
<path d="M48 21.25C48 32.848 57.402 42.25 69 42.25C80.598 42.25 90 32.848 90 21.25C90 9.65202 80.598 0.25 69 0.25C57.402 0.25 48 9.65202 48 21.25Z" fill="#D5C6C5"/>
<path d="M0 21C0 32.598 9.40202 42 21 42C32.598 42 42 32.598 42 21C42 9.40202 32.598 0 21 0C9.40202 0 0 9.40202 0 21Z" fill="white"/>
<path d="M144 21.25C144 32.848 153.402 42.25 165 42.25C176.598 42.25 186 32.848 186 21.25C186 9.65202 176.598 0.25 165 0.25C153.402 0.25 144 9.65202 144 21.25Z" fill="#91BED7"/>
<path d="M192.25 21.25C192.25 32.848 201.652 42.25 213.25 42.25C224.848 42.25 234.25 32.848 234.25 21.25C234.25 9.65202 224.848 0.25 213.25 0.25C201.652 0.25 192.25 9.65202 192.25 21.25Z" fill="#E58090"/>
<path d="M96 21.25C96 32.848 105.402 42.25 117 42.25C128.598 42.25 138 32.848 138 21.25C138 9.65202 128.598 0.25 117 0.25C105.402 0.25 96 9.65202 96 21.25Z" fill="#E6C5D6"/>
<path d="M48 21.25C48 32.848 57.402 42.25 69 42.25C80.598 42.25 90 32.848 90 21.25C90 9.65202 80.598 0.25 69 0.25C57.402 0.25 48 9.65202 48 21.25Z" fill="#D5C6C5"/>
<path d="M0 21C0 32.598 9.40202 42 21 42C32.598 42 42 32.598 42 21C42 9.40202 32.598 0 21 0C9.40202 0 0 9.40202 0 21Z" fill="white"/>
<path d="M144 21.25C144 32.848 153.402 42.25 165 42.25C176.598 42.25 186 32.848 186 21.25C186 9.65202 176.598 0.25 165 0.25C153.402 0.25 144 9.65202 144 21.25Z" fill="#F2B7B3"/>
<path d="M240 21C240 32.598 249.402 42 261 42C272.598 42 282 32.598 282 21C282 9.40202 272.598 0 261 0C249.402 0 240 9.40202 240 21Z" fill="#B9C8DD"/>
<path d="M340 21C340 32.598 349.402 42 361 42C372.598 42 382 32.598 382 21C382 9.40202 372.598 0 361 0C349.402 0 340 9.40202 340 21Z" fill="black"/>
<path d="M290 21C290 32.598 299.402 42 311 42C322.598 42 332 32.598 332 21C332 9.40202 322.598 0 311 0C299.402 0 290 9.40202 290 21Z" fill="#8393A2"/>
</svg>
