<svg width="67" height="54" viewBox="0 0 67 54" fill="none" xmlns="http://www.w3.org/2000/svg">
<path d="M42 33.915V36H24.7383V34.3385L34.9687 25.0538C36.2571 23.881 37.1257 22.8711 37.5703 22.0241C38.0398 21.1554 38.2734 20.2865 38.2734 19.4178C38.2734 18.0712 37.7688 17.0287 36.7617 16.2904C35.7774 15.5301 34.3587 15.1501 32.5078 15.1501C29.625 15.1501 27.3874 15.9972 25.793 17.6912L24 16.2578C24.9616 15.2153 26.1797 14.4118 27.6562 13.847C29.1556 13.2823 30.8431 13 32.7188 13C35.2273 13 37.2063 13.5538 38.6602 14.6615C40.1367 15.7475 40.875 17.246 40.875 19.1572C40.875 20.33 40.5937 21.4593 40.0312 22.5453C39.4687 23.6313 38.4017 24.88 36.832 26.2918L28.4649 33.915H42Z" fill="#4A535C"/>
<path d="M18.3962 0.0929402C13.5438 0.469475 9.07916 2.32162 5.63666 5.38477C2.80511 7.91875 1.05449 10.8598 0.220297 14.4827C-0.0734322 15.7853 -0.0734322 19.4895 0.220297 20.7922C0.843002 23.4991 2.07666 25.9924 3.83904 28.099C4.47349 28.852 33.2589 53.917 33.4939 53.917C33.6819 53.917 61.8681 29.4219 62.5378 28.679C65.1461 25.7685 66.5678 22.6341 66.932 18.9298C67.3315 14.9711 65.9568 10.697 63.184 7.30815C62.1736 6.07678 60.0117 4.19411 58.5783 3.31892C52.4453 -0.44642 44.4324 -1.02649 37.7236 1.80261C36.5252 2.31144 35.033 3.10521 34.1988 3.68528C33.9404 3.86846 33.6701 4.04146 33.5996 4.08217C33.5291 4.1127 32.9182 3.8074 32.2485 3.39016C30.8151 2.49462 28.195 1.33449 26.6441 0.896892C25.1872 0.489828 23.5541 0.215059 21.921 0.0827636C20.4171 -0.029179 19.9941 -0.029179 18.3962 0.0929402ZM23.8243 2.92204C26.9966 3.51228 29.8752 4.83524 32.2955 6.79932L33.4469 7.74575L33.7641 7.50151C33.9404 7.36921 34.4926 6.93162 34.9978 6.52455C37.0539 4.87594 39.4507 3.75652 42.3293 3.09504C45.5485 2.35215 49.4375 2.5048 52.5863 3.49193C60.9869 6.12767 65.6866 13.8822 63.4307 21.4027C62.8433 23.3668 61.8799 25.0969 60.5052 26.6641C60.047 27.1932 54.9126 31.7116 46.606 38.9065L33.4352 50.3043L20.2644 38.9065C11.805 31.5793 6.83507 27.2034 6.35336 26.6539C4.90821 24.9951 3.78029 22.7969 3.22808 20.5377C2.88735 19.1232 2.85211 16.3857 3.15759 14.9915C3.6628 12.7323 4.87296 10.3306 6.34161 8.63111C7.91599 6.8095 10.3598 5.0693 12.6861 4.1127C14.2958 3.44104 16.5046 2.88133 18.2787 2.68797C19.3362 2.57603 22.7082 2.7185 23.8243 2.92204Z" fill="black" fill-opacity="0.8"/>
</svg>
